<?xml version="1.0" encoding="UTF-8"?>
<!DOCTYPE svg PUBLIC "-//W3C//DTD SVG 1.1//EN" "http://www.w3.org/Graphics/SVG/1.1/DTD/svg11.dtd">
<!-- Creator: CorelDRAW -->
<svg xmlns="http://www.w3.org/2000/svg" xml:space="preserve" width="248.163mm" height="250.825mm" version="1.1" style="shape-rendering:geometricPrecision; text-rendering:geometricPrecision; image-rendering:optimizeQuality; fill-rule:evenodd; clip-rule:evenodd"
viewBox="0 0 4129.77 4174.07"
 xmlns:xlink="http://www.w3.org/1999/xlink"
 xmlns:xodm="http://www.corel.com/coreldraw/odm/2003">
 <defs>
  <style type="text/css">
   <![CDATA[
    .fil0 {fill:#0B2A41}
   ]]>
  </style>
 </defs>
 <g id="Camada_x0020_1">
  <metadata id="CorelCorpID_0Corel-Layer"/>
  <g id="_2202674864576">
   <path class="fil0" d="M3005.8 99.8c0,55.64 95.29,133.44 145.3,183.46l165.85 162.91 -743.85 735.57c-19.29,16.13 -28.82,38.36 -54.57,45.23 -5.26,-19.71 -179.85,-231.78 -200.38,-257.54l-338.38 -424.81c-72.13,-87.79 -206.76,-268.86 -269.97,-340.58 -84.12,-95.44 -136.7,-32.72 -191.13,11.32l-512.24 409.46c-116.79,91.73 -226.97,182.3 -342.27,274.16 -114.25,91.02 -225.25,178.69 -339.43,271.13 -58.03,46.98 -110.59,89.4 -169.56,135.72 -49.78,39.1 -155.18,107.57 -155.18,155.97 0,64.3 8.65,62.2 57.94,124.06 24.13,30.29 46.26,57.7 70.45,88.06 171.97,215.84 122.83,214.14 492.07,-84.8l312.99 -250.6c52.64,-41.11 103.37,-81.98 156.66,-125.13l471.5 -373.88c20.82,39.35 739.28,931.15 846.05,1067.8 57.74,73.89 119.59,48.26 174,-6.66l889.4 -883.55c55.94,-55.94 176.33,-156.84 209.88,-206.94l248.04 245.1c25.35,25.36 57.31,66.04 104.2,66.04 46.11,0 81.8,-35.9 92.97,-71.42 7.56,-24.06 0.97,-437.53 0.97,-486.3 0,-56.91 6.21,-453.51 -3.37,-489.77 -11.5,-43.53 -45.06,-73.82 -96.43,-73.82l-628.16 -0c-60.88,-0.03 -98.45,5.95 -158.51,5.87 -80.38,-0.1 -234.83,-27.76 -234.83,93.93z"/>
   <path class="fil0" d="M3281.72 1526.39l0 2530.27c0,33.9 7.54,62.15 24.61,81.06 18.48,20.47 37.86,36.35 75.19,36.35l375.73 0c51.47,0 93.93,-41.31 93.93,-93.93l0 -2577.24c0,-54.48 -45.67,-93.93 -99.8,-93.93l-369.85 0c-63.12,0 -99.8,53.36 -99.8,117.41z"/>
   <path class="fil0" d="M1203.49 1491.16l0 2600.72c0,43.24 48.03,82.19 93.93,82.19l375.73 0c45.9,0 93.93,-38.95 93.93,-82.19l0 -2600.72c0,-45.26 -52.56,-82.19 -99.8,-82.19l-358.11 0c-59.47,0 -105.67,38.8 -105.67,82.19z"/>
   <path class="fil0" d="M158.51 2289.58l0 1784.69c0,55.68 44.12,99.8 99.8,99.8l369.85 0c57.76,0 99.8,-42.04 99.8,-99.8l0 -1784.69c0,-53.66 -46.15,-99.8 -99.8,-99.8l-369.85 0c-53.66,0 -99.8,46.15 -99.8,99.8z"/>
   <path class="fil0" d="M2242.61 2318.93l0 1755.34c0,56.05 44.97,99.8 88.06,99.8l381.59 0c55.68,0 99.8,-44.12 99.8,-99.8l0 -1749.47c0,-54.14 -39.46,-99.8 -93.93,-99.8l-381.59 0c-52.62,0 -93.93,42.47 -93.93,93.93z"/>
  </g>
 </g>
</svg>
