<?xml version="1.0" encoding="UTF-8"?>
<!DOCTYPE svg PUBLIC "-//W3C//DTD SVG 1.1//EN" "http://www.w3.org/Graphics/SVG/1.1/DTD/svg11.dtd">
<!-- Creator: CorelDRAW -->
<svg xmlns="http://www.w3.org/2000/svg" xml:space="preserve" width="106.965mm" height="126.413mm" version="1.1" style="shape-rendering:geometricPrecision; text-rendering:geometricPrecision; image-rendering:optimizeQuality; fill-rule:evenodd; clip-rule:evenodd"
viewBox="0 0 2695.96 3186.14"
 xmlns:xlink="http://www.w3.org/1999/xlink"
 xmlns:xodm="http://www.corel.com/coreldraw/odm/2003">
 <defs>
  <style type="text/css">
   <![CDATA[
    .fil0 {fill:#0B2A41;fill-rule:nonzero}
   ]]>
  </style>
 </defs>
 <g id="Camada_x0020_1">
  <metadata id="CorelCorpID_0Corel-Layer"/>
  <path class="fil0" d="M2660.07 648.61l-612.72 -612.72c-22.97,-22.97 -54.16,-35.9 -86.66,-35.9l-1225.44 0c-135.27,0.12 -244.97,109.82 -245.08,245.1l-0 245.08 -245.09 0c-135.27,0.12 -244.96,109.82 -245.08,245.1l-0 2205.77c0.12,135.27 109.82,244.97 245.1,245.09l1715.6 0c135.27,-0.12 244.97,-109.82 245.09,-245.1l0 -245.07 245.09 0c135.27,-0.13 244.97,-109.82 245.09,-245.1l0 -1715.6c0,-0 0,-0 0,-0 0,-32.5 -12.92,-63.68 -35.89,-86.64l0.01 -0.01zm-1189.55 1924.8l-735.26 0c-67.67,-0 -122.54,-54.88 -122.54,-122.54 0,-67.67 54.88,-122.54 122.54,-122.54l735.26 0c67.67,-0 122.54,54.87 122.54,122.54 0,67.67 -54.88,122.54 -122.54,122.54l0 0zm0 -490.17l-735.26 0c-67.67,0 -122.54,-54.88 -122.54,-122.54 0,-67.67 54.88,-122.54 122.54,-122.54l735.26 0c67.67,-0 122.54,54.87 122.54,122.54 0,67.67 -54.88,122.54 -122.54,122.54zm980.35 367.63l-245.09 0 0 -1225.44c0,0 0,0 0,0 0,-32.5 -12.92,-63.68 -35.89,-86.64l-612.72 -612.72c-22.96,-22.97 -54.16,-35.9 -86.65,-35.9l-735.26 -0 0 -245.09 1174.68 0 540.93 540.94 0 1664.85z"/>
 </g>
</svg>
