<?xml version="1.0" encoding="UTF-8"?>
<!DOCTYPE svg PUBLIC "-//W3C//DTD SVG 1.1//EN" "http://www.w3.org/Graphics/SVG/1.1/DTD/svg11.dtd">
<!-- Creator: CorelDRAW -->
<svg xmlns="http://www.w3.org/2000/svg" xml:space="preserve" width="125.269mm" height="123.489mm" version="1.1" style="shape-rendering:geometricPrecision; text-rendering:geometricPrecision; image-rendering:optimizeQuality; fill-rule:evenodd; clip-rule:evenodd"
viewBox="0 0 12903.51 12720.1"
 xmlns:xlink="http://www.w3.org/1999/xlink"
 xmlns:xodm="http://www.corel.com/coreldraw/odm/2003">
 <defs>
  <style type="text/css">
   <![CDATA[
    .fil0 {fill:#0B2A41;fill-rule:nonzero}
   ]]>
  </style>
 </defs>
 <g id="Camada_x0020_1">
  <metadata id="CorelCorpID_0Corel-Layer"/>
  <path class="fil0" d="M6451.76 0l-6278.24 6278.37 -173.52 173.39 346.93 346.92 173.41 -173.51 5931.41 -5931.37 5931.39 5931.38 173.42 173.5 346.93 -346.92 -173.52 -173.41 -6278.23 -6278.35zm-4360.58 783l0 2923.58 1744.23 -1744.29 0 -1179.28 -1744.23 0zm4360.58 564.88l-5232.7 5232.7 0 6139.51 1744.23 0 0 -4524.12 2616.35 0 0 4524.11 6104.81 0.01 0 -6139.51 -5232.69 -5232.7zm872.11 6848.1l2616.35 0 0 2180.3 -2616.35 0 0 -2180.3z"/>
 </g>
</svg>
