<?xml version="1.0" encoding="UTF-8"?>
<!DOCTYPE svg PUBLIC "-//W3C//DTD SVG 1.1//EN" "http://www.w3.org/Graphics/SVG/1.1/DTD/svg11.dtd">
<!-- Creator: CorelDRAW -->
<svg xmlns="http://www.w3.org/2000/svg" xml:space="preserve" width="263.871mm" height="336.497mm" version="1.1" style="shape-rendering:geometricPrecision; text-rendering:geometricPrecision; image-rendering:optimizeQuality; fill-rule:evenodd; clip-rule:evenodd"
viewBox="0 0 2332.31 2974.25"
 xmlns:xlink="http://www.w3.org/1999/xlink"
 xmlns:xodm="http://www.corel.com/coreldraw/odm/2003">
 <defs>
  <style type="text/css">
   <![CDATA[
    .fil0 {fill:#0B2A41;fill-rule:nonzero}
   ]]>
  </style>
 </defs>
 <g id="Camada_x0020_1">
  <metadata id="CorelCorpID_0Corel-Layer"/>
  <g id="_2202677677424">
   <path class="fil0" d="M1166.16 209.98c-16.71,0 -30.28,-13.53 -30.28,-30.25l0 -149.45c0,-16.71 13.56,-30.28 30.28,-30.28 16.71,0 30.28,13.56 30.28,30.28l0 149.45c0,16.71 -13.56,30.25 -30.28,30.25z"/>
   <path class="fil0" d="M1863.65 498.9c-7.73,0 -15.47,-2.96 -21.39,-8.86 -11.82,-11.82 -11.82,-30.99 0,-42.81l105.7 -105.67c11.82,-11.82 30.96,-11.82 42.78,0 11.82,11.82 11.82,30.99 0,42.81l-105.67 105.67c-5.92,5.89 -13.66,8.86 -21.42,8.86z"/>
   <path class="fil0" d="M362.95 1999.63c-7.73,0 -15.5,-2.95 -21.39,-8.86 -11.82,-11.81 -11.82,-30.99 0,-42.8l105.67 -105.68c11.82,-11.82 30.96,-11.82 42.81,0 11.82,11.81 11.82,30.98 0,42.8l-105.71 105.68c-5.89,5.91 -13.66,8.86 -21.39,8.86z"/>
   <path class="fil0" d="M2302.07 1196.43l-149.48 0c-16.71,0 -30.28,-13.55 -30.28,-30.27 0,-16.72 13.56,-30.27 30.28,-30.27l149.48 0c16.71,0 30.25,13.55 30.25,30.27 0,16.72 -13.53,30.27 -30.25,30.27z"/>
   <path class="fil0" d="M179.7 1196.43l-149.45 0c-16.71,0 -30.25,-13.55 -30.25,-30.27 0,-16.72 13.53,-30.27 30.25,-30.27l149.45 0c16.74,0 30.28,13.55 30.28,30.27 0,16.72 -13.53,30.27 -30.28,30.27z"/>
   <path class="fil0" d="M1969.36 1999.63c-7.73,0 -15.5,-2.95 -21.39,-8.86l-105.7 -105.68c-11.82,-11.81 -11.82,-30.98 0,-42.8 11.82,-11.82 30.96,-11.82 42.81,0l105.67 105.68c11.82,11.81 11.82,30.98 0,42.8 -5.89,5.91 -13.66,8.86 -21.39,8.86z"/>
   <path class="fil0" d="M468.63 498.9c-7.73,0 -15.47,-2.96 -21.39,-8.86l-105.67 -105.67c-11.82,-11.82 -11.82,-30.99 0,-42.81 11.82,-11.82 30.96,-11.82 42.78,0l105.71 105.67c11.82,11.82 11.82,31 0,42.81 -5.92,5.89 -13.66,8.86 -21.42,8.86z"/>
   <path class="fil0" d="M1547.1 286.53c-3.9,0 -7.86,-0.75 -11.66,-2.34 -15.43,-6.46 -22.7,-24.2 -16.24,-39.63l57.72 -137.85c6.45,-15.44 24.23,-22.67 39.6,-16.25 15.43,6.46 22.7,24.2 16.24,39.63l-57.72 137.85c-4.86,11.6 -16.09,18.58 -27.94,18.58z"/>
   <path class="fil0" d="M2078.93 822.41c-11.91,0 -23.2,-7.08 -28,-18.8 -6.33,-15.47 1.06,-33.15 16.53,-39.48l138.29 -56.69c15.47,-6.3 33.15,1.09 39.48,16.56 6.36,15.47 -1.06,33.15 -16.53,39.48l-138.29 56.66c-3.74,1.56 -7.64,2.28 -11.47,2.28z"/>
   <path class="fil0" d="M115.09 1627.14c-11.94,0 -23.23,-7.09 -28.03,-18.8 -6.33,-15.47 1.06,-33.14 16.53,-39.49l138.32 -56.67c15.44,-6.32 33.15,1.08 39.48,16.53 6.33,15.47 -1.06,33.15 -16.53,39.49l-138.32 56.67c-3.74,1.53 -7.64,2.26 -11.44,2.26z"/>
   <path class="fil0" d="M2213.92 1635.12c-3.9,0 -7.86,-0.76 -11.66,-2.35l-137.89 -57.71c-15.4,-6.45 -22.7,-24.18 -16.24,-39.61 6.49,-15.44 24.23,-22.68 39.6,-16.24l137.89 57.71c15.43,6.45 22.7,24.19 16.25,39.61 -4.86,11.61 -16.12,18.59 -27.94,18.59z"/>
   <path class="fil0" d="M256.22 815.49c-3.9,0 -7.86,-0.78 -11.66,-2.37l-137.85 -57.72c-15.44,-6.46 -22.7,-24.2 -16.25,-39.6 6.45,-15.44 24.23,-22.67 39.6,-16.25l137.85 57.72c15.43,6.49 22.7,24.2 16.25,39.6 -4.86,11.63 -16.09,18.62 -27.94,18.62z"/>
   <path class="fil0" d="M792.13 283.66c-11.91,0 -23.23,-7.08 -28.03,-18.8l-56.66 -138.29c-6.33,-15.47 1.06,-33.15 16.53,-39.51 15.47,-6.3 33.15,1.09 39.51,16.56l56.66 138.29c6.33,15.47 -1.06,33.15 -16.53,39.51 -3.77,1.53 -7.64,2.25 -11.47,2.25z"/>
   <path class="fil0" d="M1431.29 2606.21l-511.25 0c-28.84,0 -52.23,-23.39 -52.23,-52.23l0 0c0,-28.84 23.39,-52.23 52.23,-52.23l511.25 0c28.84,0 52.23,23.39 52.23,52.23l0 0c0,28.84 -23.39,52.23 -52.23,52.23z"/>
   <path class="fil0" d="M1431.29 2770.26l-511.25 0c-28.84,0 -52.23,-23.39 -52.23,-52.23l0 0c0,-28.84 23.39,-52.23 52.23,-52.23l511.25 0c28.84,0 52.23,23.39 52.23,52.23l0 0c0,28.84 -23.39,52.23 -52.23,52.23z"/>
   <path class="fil0" d="M1051.63 2832.06c-12.66,0 -22.26,11.51 -19.92,23.95 12.6,67.29 71.56,118.24 142.5,118.24 70.94,0 129.9,-50.95 142.5,-118.24 2.31,-12.44 -7.3,-23.95 -19.93,-23.95l-245.15 0z"/>
   <path class="fil0" d="M1171.83 474.58c-36.58,0 -73.09,2.87 -108.73,8.64 -327.62,53.01 -565.45,332.83 -565.45,665.34 0,253.42 99.94,408.59 205.74,572.85 102.4,159 208.29,323.42 227.59,580.4 1.4,18.62 17.09,33.21 35.73,33.21l410.47 0c18.93,0 34.3,-14.28 35.7,-33.21 19.33,-256.98 125.22,-421.4 227.63,-580.4 105.8,-164.27 205.77,-319.43 205.77,-572.85 0,-324.37 -231.06,-603.04 -549.36,-662.54 -40.85,-7.64 -82.97,-11.44 -125.1,-11.44zm205.36 1961.35l-410.47 0c-71.13,0 -130.99,-55.6 -136.33,-126.57 -17.4,-231.43 -111.82,-378.07 -211.82,-533.32 -109.04,-169.31 -221.79,-344.38 -221.79,-627.48 0,-382.28 273.43,-703.98 650.2,-764.93 88.09,-14.25 180.92,-13.13 268.47,3.21 366.04,68.44 631.71,388.8 631.71,761.72 0,283.1 -112.75,458.17 -221.79,627.48 -100.03,155.25 -194.45,301.89 -211.85,533.32 -5.33,70.97 -65.23,126.57 -136.33,126.57z"/>
   <path class="fil0" d="M796.34 1634.21c-15.56,0.01 -30.93,-7.19 -40.82,-20.75 -280.04,-384.68 -73.62,-745.71 -64.67,-760.9 14.09,-24.01 45.03,-32.02 69.04,-17.9 23.98,14.09 32.02,44.94 17.99,68.94 -7.73,13.32 -180.85,320.76 59.21,650.47 16.4,22.52 11.44,54.08 -11.1,70.47 -8.95,6.52 -19.33,9.66 -29.65,9.66z"/>
  </g>
 </g>
</svg>
