<?xml version="1.0" encoding="UTF-8"?>
<!DOCTYPE svg PUBLIC "-//W3C//DTD SVG 1.1//EN" "http://www.w3.org/Graphics/SVG/1.1/DTD/svg11.dtd">
<!-- Creator: CorelDRAW 2026 -->
<svg xmlns="http://www.w3.org/2000/svg" xml:space="preserve" width="171.433mm" height="27.0498mm" version="1.1" style="shape-rendering:geometricPrecision; text-rendering:geometricPrecision; image-rendering:optimizeQuality; fill-rule:evenodd; clip-rule:evenodd"
viewBox="0 0 16281.57 2569.01"
 xmlns:xlink="http://www.w3.org/1999/xlink"
 xmlns:xodm="http://www.corel.com/coreldraw/odm/2003">
 <defs>
  <style type="text/css">
   <![CDATA[
    .str0 {stroke:#152C4F;stroke-width:7.24;stroke-miterlimit:22.9256}
    .fil0 {fill:#152C4F;fill-rule:nonzero}
   ]]>
  </style>
 </defs>
 <g id="Camada_x0020_1">
  <metadata id="CorelCorpID_0Corel-Layer"/>
  <path class="fil0" d="M-0 2541.94l0 -2398.06 253.51 0 0 2398.06 -253.51 0zm983.2 0l0 -1798.54 232.96 0 0 486.46 -37.69 -85.65c54.81,-130.18 143.31,-232.38 265.5,-306.61 122.18,-74.22 266.64,-111.34 433.36,-111.34 175.85,0 325.45,43.96 448.78,131.9 123.33,87.93 203.26,219.82 239.81,395.68l-95.92 -37.69c52.53,-146.16 145.59,-264.36 279.2,-354.57 133.61,-90.21 294.05,-135.32 481.33,-135.32 146.16,0 273.49,27.98 381.97,83.94 108.49,55.95 192.99,141.03 253.51,255.22 60.52,114.19 90.79,258.07 90.79,431.64l0 1044.87 -243.24 0 0 -1020.89c0,-189.56 -45.1,-332.87 -135.32,-429.94 -90.22,-97.06 -217.54,-145.59 -381.97,-145.59 -123.33,0 -230.1,25.69 -320.32,77.08 -90.21,51.38 -159.87,125.61 -208.97,222.67 -49.1,97.06 -73.65,214.11 -73.65,351.15l0 945.52 -243.24 0 0 -1020.89c0,-189.56 -45.67,-332.87 -137.03,-429.94 -91.35,-97.06 -219.26,-145.59 -383.69,-145.59 -121.04,0 -227.24,25.69 -318.6,77.08 -91.35,51.38 -161.59,125.61 -210.69,222.67 -49.1,97.06 -73.65,214.11 -73.65,351.15l0 945.52 -243.24 0zm4367.89 17.13c-175.86,-2.29 -332.3,-42.25 -469.34,-119.9 -137.03,-77.65 -244.95,-185.57 -323.74,-323.75 -78.79,-138.17 -118.19,-296.33 -118.19,-474.47 -2.28,-180.42 37.12,-338.58 118.19,-474.47 81.08,-135.9 189.56,-243.24 325.45,-322.03 135.9,-78.8 291.77,-118.19 467.63,-118.19 178.14,0 335.72,39.39 472.76,118.19 137.03,78.79 244.95,186.7 323.74,323.74 78.79,137.03 118.18,294.62 118.18,472.76 2.29,178.14 -35.97,336.3 -114.76,474.47 -78.8,138.18 -187.85,246.1 -327.16,323.75 -139.32,77.65 -296.91,117.62 -472.76,119.9zm0 -215.83c130.18,0 245.52,-29.12 346,-87.36 100.49,-58.24 179.86,-140.47 238.1,-246.66 58.24,-106.2 88.5,-228.95 90.79,-368.27 -2.29,-141.6 -32.55,-264.93 -90.79,-369.99 -58.24,-105.06 -137.61,-186.71 -238.1,-244.95 -100.48,-58.24 -215.82,-87.36 -346,-87.36 -125.62,0 -238.67,29.12 -339.16,87.36 -100.49,58.24 -180.42,139.89 -239.81,244.95 -59.38,105.06 -90.21,228.39 -92.49,369.99 2.29,139.32 33.12,262.07 92.49,368.27 59.39,106.2 138.75,189 238.1,248.37 99.34,59.38 212.97,87.93 340.87,85.65zm2343.24 215.83c-157.59,0 -299.19,-35.98 -424.8,-107.92 -125.61,-71.94 -224.96,-176.42 -298.05,-313.46 -73.08,-137.03 -109.63,-302.61 -109.63,-496.74 0,-196.41 37.12,-362.56 111.34,-498.45 74.23,-135.9 174.15,-239.24 299.76,-310.04 125.61,-70.79 266.07,-106.2 421.37,-106.2 171.29,0 324.89,38.26 460.77,114.77 135.89,76.51 242.66,183.28 320.31,320.31 77.65,137.04 116.48,296.91 116.48,479.62 0,180.42 -38.83,339.73 -116.48,477.9 -77.65,138.18 -184.42,246.09 -320.31,323.74 -135.89,77.65 -289.48,116.48 -460.77,116.48zm-928.39 -17.13l0 -2541.94 243.24 0 0 1274.4 -34.26 363.13 23.98 363.14 0 541.27 -232.96 0zm911.27 -198.69c127.89,0 242.09,-29.12 342.58,-87.36 100.48,-58.24 180.42,-140.47 239.8,-246.66 59.39,-106.2 89.08,-228.95 89.08,-368.27 0,-141.6 -29.69,-264.93 -89.08,-369.99 -59.38,-105.06 -139.32,-186.71 -239.8,-244.95 -100.49,-58.24 -214.69,-87.36 -342.58,-87.36 -127.9,0 -242.67,29.12 -344.3,87.36 -101.63,58.24 -181.57,139.89 -239.81,244.95 -58.24,105.06 -87.36,228.39 -87.36,369.99 0,139.32 29.12,262.07 87.36,368.27 58.24,106.2 138.18,188.43 239.81,246.66 101.63,58.24 216.4,87.36 344.3,87.36z"/>
  <path class="fil0 str0" d="M9064.42 2541.94l0 -1784.54 435.56 0 0 1415.99 569.58 0c174.22,0 326.11,-33.5 455.65,-100.51 129.55,-67 229.51,-160.82 299.87,-281.43 70.36,-120.62 105.53,-261.34 105.53,-422.16 0,-163.06 -35.18,-304.33 -105.53,-423.84 -70.36,-119.5 -170.32,-212.75 -299.87,-279.76 -129.54,-67 -281.43,-100.51 -455.65,-100.51l-566.84 0 -438.3 -0.87 0 -367.68 1025.24 0c254.63,0 478,49.14 670.09,147.43 192.09,98.28 341.74,234.53 448.96,408.76 107.22,174.22 160.82,379.71 160.82,616.48 0,234.53 -53.6,439.46 -160.82,614.8 -107.22,175.35 -256.87,312.16 -448.96,410.44 -192.09,98.28 -415.46,147.42 -670.09,147.42l-1025.24 0zm3568.24 23.45c-198.79,0 -372.46,-39.64 -521,-118.94 -148.54,-79.29 -263.57,-188.19 -345.1,-326.67 -81.53,-138.49 -122.29,-295.96 -122.29,-472.42 0,-178.69 39.64,-336.72 118.94,-474.09 79.29,-137.37 188.74,-245.14 328.34,-323.32 139.61,-78.17 298.75,-117.26 477.44,-117.26 174.23,0 329.46,37.97 465.71,113.91 136.26,75.95 243.47,183.17 321.65,321.65 78.18,138.49 117.26,301.54 117.26,489.17 0,17.86 -0.55,37.97 -1.67,60.31 -1.12,22.33 -2.79,43.55 -5.02,63.65l-1490.95 0 0 -278.08 1269.81 0 -164.17 87.11c2.24,-102.74 -18.99,-193.2 -63.65,-271.39 -44.68,-78.17 -105.54,-139.6 -182.61,-184.28 -77.06,-44.67 -165.84,-67 -266.36,-67 -102.74,0 -192.64,22.34 -269.71,67 -77.06,44.68 -137.37,106.66 -180.92,185.95 -43.55,79.29 -65.34,172.55 -65.34,279.76l0 67.01c0,107.22 24.58,202.14 73.72,284.79 49.14,82.65 118.37,146.31 207.73,190.97 89.34,44.68 192.09,67.01 308.24,67.01 100.52,0 190.98,-15.63 271.39,-46.91 80.41,-31.27 151.89,-80.41 214.43,-147.42l224.48 257.99c-80.4,93.81 -181.48,165.84 -303.21,216.1 -121.74,50.26 -260.78,75.38 -417.13,75.38zm2295.06 -23.45l0 -361.85 -23.46 -77.06 0 -633.24c0,-122.85 -36.85,-218.33 -110.56,-286.46 -73.71,-68.13 -185.4,-102.19 -335.05,-102.19 -100.52,0 -199.35,15.63 -296.52,46.91 -97.17,31.27 -179.25,74.82 -246.26,130.66l-164.17 -304.89c96.05,-73.71 210.52,-128.99 343.41,-165.84 132.91,-36.86 270.84,-55.28 413.79,-55.28 259.1,0 459.57,61.98 601.4,185.95 141.83,123.97 212.76,315.5 212.76,574.6l0 1048.7 -395.36 0zm-562.88 23.45c-134.02,0 -251.28,-22.89 -351.8,-68.68 -100.51,-45.79 -178.13,-109.45 -232.86,-190.97 -54.72,-81.53 -82.09,-173.67 -82.09,-276.41 0,-100.51 24.01,-190.97 72.04,-271.39 48.02,-80.41 126.76,-144.07 236.21,-190.97 109.45,-46.91 254.63,-70.37 435.56,-70.37l519.32 0 0 278.09 -489.17 0c-142.95,0 -239,22.89 -288.14,68.68 -49.14,45.79 -73.71,102.19 -73.71,169.2 0,75.94 30.15,136.25 90.46,180.92 60.31,44.68 144.07,67.01 251.28,67.01 102.75,0 194.89,-23.46 276.41,-70.37 81.53,-46.91 140.16,-116.14 175.9,-207.73l70.37 251.28c-40.21,104.98 -112.24,186.51 -216.11,244.59 -103.86,58.08 -235.09,87.11 -393.67,87.11zm1497.65 -23.45l-3.35 -2486.03 418.8 0 0 2486.03 -415.45 0z"/>
 </g>
</svg>
