<?xml version="1.0" encoding="UTF-8"?>
<!DOCTYPE svg PUBLIC "-//W3C//DTD SVG 1.1//EN" "http://www.w3.org/Graphics/SVG/1.1/DTD/svg11.dtd">
<!-- Creator: CorelDRAW 2026 -->
<svg xmlns="http://www.w3.org/2000/svg" xml:space="preserve" width="171.395mm" height="27.0117mm" version="1.1" style="shape-rendering:geometricPrecision; text-rendering:geometricPrecision; image-rendering:optimizeQuality; fill-rule:evenodd; clip-rule:evenodd"
viewBox="0 0 16274.33 2564.82"
 xmlns:xlink="http://www.w3.org/1999/xlink"
 xmlns:xodm="http://www.corel.com/coreldraw/odm/2003">
 <defs>
  <style type="text/css">
   <![CDATA[
    .fil0 {fill:#FEFEFE;fill-rule:nonzero}
   ]]>
  </style>
 </defs>
 <g id="Camada_x0020_1">
  <metadata id="CorelCorpID_0Corel-Layer"/>
  <path class="fil0" d="M-0 2541.38l0 -2397.53 253.46 0 0 2397.53 -253.46 0zm982.98 0l0 -1798.14 232.91 0 0 486.36 -37.68 -85.63c54.8,-130.15 143.28,-232.33 265.44,-306.54 122.16,-74.21 266.58,-111.31 433.27,-111.31 175.81,0 325.38,43.95 448.68,131.87 123.31,87.91 203.22,219.77 239.75,395.59l-95.9 -37.68c52.52,-146.13 145.56,-264.3 279.14,-354.49 133.58,-90.19 293.98,-135.29 481.22,-135.29 146.13,0 273.43,27.97 381.89,83.92 108.46,55.94 192.94,140.99 253.46,255.17 60.5,114.16 90.76,258.01 90.76,431.55l0 1044.64 -243.18 0 0 -1020.66c0,-189.52 -45.09,-332.8 -135.29,-429.84 -90.2,-97.04 -217.49,-145.56 -381.89,-145.56 -123.31,0 -230.05,25.68 -320.25,77.06 -90.19,51.37 -159.83,125.58 -208.92,222.63 -49.09,97.04 -73.64,214.06 -73.64,351.07l0 945.31 -243.18 0 0 -1020.66c0,-189.52 -45.66,-332.8 -137,-429.84 -91.33,-97.04 -219.21,-145.56 -383.61,-145.56 -121.02,0 -227.19,25.68 -318.53,77.06 -91.33,51.37 -161.55,125.58 -210.64,222.63 -49.09,97.04 -73.64,214.06 -73.64,351.07l0 945.31 -243.18 0zm4366.92 17.13c-175.82,-2.29 -332.23,-42.24 -469.24,-119.88 -137,-77.63 -244.89,-185.53 -323.66,-323.67 -78.77,-138.14 -118.17,-296.26 -118.17,-474.36 -2.28,-180.38 37.11,-338.5 118.17,-474.36 81.06,-135.87 189.52,-243.18 325.37,-321.95 135.87,-78.78 291.7,-118.17 467.53,-118.17 178.1,0 335.65,39.39 472.65,118.17 137,78.77 244.89,186.66 323.66,323.66 78.77,137 118.16,294.55 118.16,472.65 2.29,178.1 -35.96,336.23 -114.73,474.36 -78.78,138.15 -187.81,246.04 -327.09,323.67 -139.29,77.63 -296.84,117.59 -472.65,119.88zm0 -215.78c130.15,0 245.46,-29.11 345.92,-87.34 100.47,-58.22 179.82,-140.43 238.05,-246.61 58.22,-106.18 88.48,-228.9 90.76,-368.19 -2.29,-141.56 -32.54,-264.87 -90.76,-369.91 -58.22,-105.04 -137.58,-186.67 -238.05,-244.89 -100.46,-58.22 -215.77,-87.34 -345.92,-87.34 -125.59,0 -238.62,29.11 -339.08,87.34 -100.47,58.22 -180.38,139.86 -239.75,244.89 -59.36,105.04 -90.19,228.34 -92.47,369.91 2.29,139.29 33.11,262.01 92.47,368.19 59.37,106.18 138.72,188.96 238.05,248.32 99.32,59.36 212.92,87.91 340.79,85.63zm2342.72 215.78c-157.55,0 -299.12,-35.97 -424.7,-107.89 -125.58,-71.93 -224.91,-176.38 -297.98,-313.39 -73.07,-137 -109.6,-302.55 -109.6,-496.63 0,-196.37 37.11,-362.48 111.31,-498.34 74.21,-135.87 174.11,-239.18 299.7,-309.97 125.58,-70.78 266.01,-106.18 421.27,-106.18 171.26,0 324.81,38.25 460.67,114.74 135.86,76.49 242.6,183.24 320.24,320.24 77.63,137.01 116.45,296.84 116.45,479.51 0,180.38 -38.82,339.65 -116.45,477.79 -77.63,138.15 -184.38,246.03 -320.24,323.66 -135.86,77.63 -289.41,116.46 -460.67,116.46zm-928.19 -17.13l0 -2541.38 243.18 0 0 1274.12 -34.25 363.05 23.98 363.06 0 541.15 -232.91 0zm911.07 -198.65c127.86,0 242.03,-29.11 342.5,-87.34 100.46,-58.22 180.38,-140.43 239.75,-246.61 59.37,-106.18 89.06,-228.9 89.06,-368.19 0,-141.56 -29.68,-264.87 -89.06,-369.91 -59.36,-105.04 -139.29,-186.67 -239.75,-244.89 -100.47,-58.22 -214.64,-87.34 -342.5,-87.34 -127.87,0 -242.61,29.11 -344.22,87.34 -101.61,58.22 -181.53,139.86 -239.75,244.89 -58.22,105.04 -87.34,228.34 -87.34,369.91 0,139.29 29.11,262.01 87.34,368.19 58.22,106.18 138.15,188.39 239.75,246.61 101.61,58.22 216.35,87.34 344.22,87.34z"/>
  <path class="fil0" d="M9062.41 2541.38l0 -1784.14 435.46 0 0 1415.67 569.46 0c174.18,0 326.04,-33.49 455.55,-100.49 129.52,-66.99 229.46,-160.78 299.8,-281.37 70.34,-120.59 105.51,-261.28 105.51,-422.06 0,-163.02 -35.17,-304.27 -105.51,-423.74 -70.34,-119.47 -170.28,-212.7 -299.8,-279.7 -129.51,-66.99 -281.37,-100.49 -455.55,-100.49l-566.71 0 -438.2 -0.87 0 -367.6 1025.01 0c254.58,0 477.89,49.13 669.95,147.39 192.05,98.26 341.67,234.48 448.86,408.67 107.19,174.18 160.78,379.63 160.78,616.34 0,234.48 -53.59,439.36 -160.78,614.66 -107.19,175.31 -256.81,312.09 -448.86,410.35 -192.05,98.26 -415.37,147.38 -669.95,147.38l-1025.01 0zm3567.44 23.44c-198.74,0 -372.37,-39.63 -520.88,-118.91 -148.51,-79.28 -263.51,-188.15 -345.02,-326.6 -81.51,-138.46 -122.26,-295.89 -122.26,-472.31 0,-178.65 39.63,-336.64 118.91,-473.98 79.28,-137.34 188.7,-245.08 328.27,-323.25 139.58,-78.16 298.68,-117.24 477.33,-117.24 174.19,0 329.39,37.96 465.61,113.89 136.23,75.93 243.42,183.13 321.57,321.57 78.16,138.46 117.24,301.47 117.24,489.06 0,17.86 -0.55,37.96 -1.67,60.29 -1.12,22.32 -2.79,43.55 -5.02,63.64l-1490.62 0 0 -278.02 1269.53 0 -164.13 87.09c2.24,-102.72 -18.98,-193.16 -63.64,-271.33 -44.67,-78.16 -105.52,-139.57 -182.56,-184.24 -77.04,-44.66 -165.81,-66.99 -266.3,-66.99 -102.72,0 -192.6,22.33 -269.65,66.99 -77.04,44.67 -137.34,106.63 -180.88,185.91 -43.55,79.28 -65.33,172.51 -65.33,279.7l0 67c0,107.19 24.57,202.1 73.7,284.72 49.13,82.63 118.35,146.27 207.68,190.93 89.32,44.67 192.05,67 308.17,67 100.5,0 190.94,-15.63 271.33,-46.9 80.4,-31.27 151.86,-80.4 214.38,-147.38l224.43 257.93c-80.39,93.79 -181.43,165.81 -303.14,216.05 -121.71,50.25 -260.72,75.36 -417.04,75.36zm2294.55 -23.44l0 -361.77 -23.45 -77.04 0 -633.09c0,-122.82 -36.84,-218.29 -110.53,-286.4 -73.69,-68.12 -185.36,-102.17 -334.97,-102.17 -100.5,0 -199.3,15.63 -296.45,46.9 -97.15,31.26 -179.21,74.8 -246.2,130.64l-164.13 -304.83c96.03,-73.69 210.47,-128.96 343.34,-165.81 132.88,-36.85 270.78,-55.27 413.7,-55.27 259.04,0 459.46,61.97 601.27,185.91 141.8,123.94 212.71,315.43 212.71,574.47l0 1048.46 -395.27 0zm-562.75 23.44c-133.99,0 -251.22,-22.88 -351.72,-68.67 -100.49,-45.78 -178.09,-109.42 -232.8,-190.93 -54.71,-81.51 -82.07,-173.63 -82.07,-276.35 0,-100.49 24,-190.93 72.02,-271.33 48.01,-80.4 126.73,-144.04 236.16,-190.93 109.42,-46.9 254.58,-70.35 435.46,-70.35l519.21 0 0 278.03 -489.06 0c-142.92,0 -238.95,22.88 -288.08,68.67 -49.13,45.78 -73.69,102.17 -73.69,169.16 0,75.92 30.15,136.22 90.44,180.88 60.29,44.67 144.03,67 251.22,67 102.73,0 194.84,-23.45 276.35,-70.35 81.52,-46.9 140.13,-116.12 175.86,-207.68l70.35 251.22c-40.2,104.96 -112.21,186.47 -216.06,244.53 -103.84,58.06 -235.04,87.09 -393.59,87.09zm1497.32 -23.44l-3.35 -2485.48 418.71 0 0 2485.48 -415.36 0z"/>
 </g>
</svg>
