<?xml version="1.0" encoding="UTF-8"?>
<!DOCTYPE svg PUBLIC "-//W3C//DTD SVG 1.1//EN" "http://www.w3.org/Graphics/SVG/1.1/DTD/svg11.dtd">
<!-- Creator: CorelDRAW 2026 -->
<svg xmlns="http://www.w3.org/2000/svg" xml:space="preserve" width="31.9335mm" height="25.98mm" version="1.1" style="shape-rendering:geometricPrecision; text-rendering:geometricPrecision; image-rendering:optimizeQuality; fill-rule:evenodd; clip-rule:evenodd"
viewBox="0 0 510.26 415.13"
 xmlns:xlink="http://www.w3.org/1999/xlink"
 xmlns:xodm="http://www.corel.com/coreldraw/odm/2003">
 <defs>
  <style type="text/css">
   <![CDATA[
    .str0 {stroke:#152C4F;stroke-width:3.2;stroke-miterlimit:22.9256}
    .fil2 {fill:#FEFEFE}
    .fil0 {fill:#152C4F}
    .fil1 {fill:#FEFEFE;fill-rule:nonzero}
   ]]>
  </style>
 </defs>
 <g id="Camada_x0020_1">
  <metadata id="CorelCorpID_0Corel-Layer"/>
  <rect class="fil0 str0" x="1.6" y="1.6" width="507.06" height="411.93" rx="20.37" ry="16.55"/>
  <g id="_2608296836928">
   <path class="fil1" d="M174.19 339.23l0 -200.37 48.9 0 0 158.99 63.95 0c19.56,0 36.62,-3.76 51.16,-11.28 14.55,-7.52 25.77,-18.06 33.67,-31.6 7.9,-13.54 11.85,-29.34 11.85,-47.4 0,-18.31 -3.95,-34.17 -11.85,-47.59 -7.9,-13.42 -19.12,-23.89 -33.67,-31.41 -14.54,-7.52 -31.6,-11.28 -51.16,-11.28l-63.65 0 -49.21 -0.1 0 -41.28 115.11 0c28.59,0 53.67,5.52 75.24,16.55 21.57,11.03 38.37,26.33 50.41,45.9 12.04,19.56 18.06,42.63 18.06,69.22 0,26.33 -6.02,49.34 -18.06,69.03 -12.04,19.69 -28.84,35.05 -50.41,46.08 -21.57,11.03 -46.65,16.55 -75.24,16.55l-115.11 0z"/>
   <rect class="fil2" x="77.25" y="75.9" width="48.53" height="263.33"/>
  </g>
 </g>
</svg>
