<?xml version="1.0" encoding="UTF-8"?>
<!DOCTYPE svg PUBLIC "-//W3C//DTD SVG 1.1//EN" "http://www.w3.org/Graphics/SVG/1.1/DTD/svg11.dtd">
<!-- Creator: CorelDRAW -->
<svg xmlns="http://www.w3.org/2000/svg" xml:space="preserve" width="288.295mm" height="294.699mm" version="1.1" style="shape-rendering:geometricPrecision; text-rendering:geometricPrecision; image-rendering:optimizeQuality; fill-rule:evenodd; clip-rule:evenodd"
viewBox="0 0 3608.57 3688.73"
 xmlns:xlink="http://www.w3.org/1999/xlink"
 xmlns:xodm="http://www.corel.com/coreldraw/odm/2003">
 <defs>
  <style type="text/css">
   <![CDATA[
    .str0 {stroke:#0B2A41;stroke-width:162.53;stroke-linecap:round;stroke-linejoin:round;stroke-miterlimit:10}
    .fil0 {fill:none;fill-rule:nonzero}
   ]]>
  </style>
 </defs>
 <g id="Camada_x0020_1">
  <metadata id="CorelCorpID_0Corel-Layer"/>
  <path class="fil0 str0" d="M1804.28 3203.46l-483.54 0c41.28,229.66 241.96,404.01 483.54,404.01 241.58,0 442.26,-174.34 483.54,-404.01l-483.54 0z"/>
  <path class="fil0 str0" d="M2759.44 2194.55c0,-221.86 -5.31,-332.38 -5.31,-483.27 0,-674.73 -555.05,-1008.85 -949.85,-1008.85 -394.8,0 -949.85,334.12 -949.85,1008.85 0,150.89 -5.31,261.41 -5.31,483.27 0,315.37 -385.15,499.52 -385.15,856.83l0 0c0,155.76 126.29,152.08 282.1,152.08l1058.21 0 1058.21 0c155.82,0 282.11,3.68 282.11,-152.08l0 0c0,-357.3 -385.15,-541.46 -385.15,-856.83z"/>
  <path class="fil0 str0" d="M2064.88 441.84c0,143.9 -116.7,260.6 -260.6,260.6 -143.9,0 -260.6,-116.7 -260.6,-260.6 0,-143.9 116.7,-260.6 260.6,-260.6 143.9,0 260.6,116.7 260.6,260.6z"/>
  <path class="fil0 str0" d="M2378.95 423.74c446.43,211.67 757.41,662.27 767.92,1186.61"/>
  <path class="fil0 str0" d="M2544.84 81.29c573.37,273.27 971.96,854.06 982.47,1529.07"/>
  <path class="fil0 str0" d="M1229.56 423.74c-446.37,211.67 -757.35,662.27 -767.87,1186.61"/>
  <path class="fil0 str0" d="M1063.72 81.29c-573.37,273.27 -971.96,854.06 -982.47,1529.07"/>
 </g>
</svg>
