<?xml version="1.0" encoding="UTF-8"?>
<!DOCTYPE svg PUBLIC "-//W3C//DTD SVG 1.1//EN" "http://www.w3.org/Graphics/SVG/1.1/DTD/svg11.dtd">
<!-- Creator: CorelDRAW -->
<svg xmlns="http://www.w3.org/2000/svg" xml:space="preserve" width="101.975mm" height="124.636mm" version="1.1" style="shape-rendering:geometricPrecision; text-rendering:geometricPrecision; image-rendering:optimizeQuality; fill-rule:evenodd; clip-rule:evenodd"
viewBox="0 0 7500.81 9167.67"
 xmlns:xlink="http://www.w3.org/1999/xlink"
 xmlns:xodm="http://www.corel.com/coreldraw/odm/2003">
 <defs>
  <style type="text/css">
   <![CDATA[
    .fil0 {fill:#0B2A41;fill-rule:nonzero}
   ]]>
  </style>
 </defs>
 <g id="Camada_x0020_1">
  <metadata id="CorelCorpID_0Corel-Layer"/>
  <path class="fil0" d="M7084.1 833.42c230.1,0 416.71,-186.6 416.71,-416.71 0,-230.1 -186.6,-416.71 -416.71,-416.71l-6667.4 -0.01c-230.1,0.01 -416.71,186.61 -416.71,416.71 0,230.1 186.6,416.71 416.71,416.71l437.13 0c60.84,765.09 309.62,2396.1 1330.98,3333.7 -1077.2,1046.37 -1296.4,3222.85 -1340.15,4167.12l-427.96 0c-230.1,-0.01 -416.71,186.6 -416.71,416.71 0,230.1 186.6,416.71 416.71,416.71l6667.4 0.01c230.1,-0.01 416.71,-186.62 416.71,-416.72 0,-230.1 -186.6,-416.71 -416.71,-416.71l-427.97 0.01c-43.75,-943.43 -262.95,-3119.92 -1340.14,-4167.12 1021.36,-938.44 1270.14,-2569.44 1330.97,-3333.7l437.13 0zm-2675.3 2969.49c-132.28,73.46 -214.39,212.96 -214.39,364.31 0,157.25 88.62,301.22 228.99,372.04 1015.52,511.73 1333.47,2629.87 1398.06,3795l-4142.12 -0.01c62.92,-1166.79 382.54,-3283.27 1398.06,-3795 140.36,-70.8 228.98,-214.78 228.98,-372.02 0,-151.35 -82.11,-290.85 -214.39,-364.31 -1058.04,-587.14 -1330.57,-2201.06 -1400.99,-2969.48l4118.78 0c-70.43,768.42 -342.95,2382.35 -1400.99,2969.49zm-658.4 1197.63c0,0 1250.14,1000.11 1250.14,1500.16l0 1416.83 -2500.27 0 0 -1416.83c0,-500.05 1250.14,-1500.16 1250.14,-1500.16z"/>
 </g>
</svg>
